<?xml version="1.0" ?>
<!DOCTYPE svg  PUBLIC '-//W3C//DTD SVG 1.1//EN'  'http://www.w3.org/Graphics/SVG/1.1/DTD/svg11.dtd'>
<svg width="32px" height="32px" viewBox="0 0 32 32" style="fill-rule:evenodd;clip-rule:evenodd;stroke-linejoin:round;stroke-miterlimit:2;" version="1.1" xml:space="preserve" xmlns="http://www.w3.org/2000/svg" xmlns:serif="http://www.serif.com/" xmlns:xlink="http://www.w3.org/1999/xlink">
    <g data-bx-workspace="master" xmlns="http://www.w3.org/2000/svg" xmlns:bx="https://boxy-svg.com" width="32px" height="32px" viewBox="0 0 32 32" style="fill-rule:evenodd;clip-rule:evenodd;stroke-linejoin:round;stroke-miterlimit:2;" version="1.1"><defs></defs><g transform="matrix(1,0,0,1,-144,-144)"><g transform="matrix(1.5,0,0,1.2,-73.5,-34.8)"></g><g transform="matrix(0.857143,0,0,0.857143,23,22.7143)"><circle cx="161" cy="152" r="7" style="fill:rgb(144,224,239);"></circle></g><ellipse style="fill: rgb(144, 224, 239); stroke-width: 2px; stroke: rgb(25, 143, 167);" cx="161.098" cy="152.843" rx="5.822" ry="5.79"></ellipse></g></g>
    <g data-bx-workspace="master" xmlns="http://www.w3.org/2000/svg" xmlns:bx="https://boxy-svg.com" width="32px" height="32px" viewBox="0 0 32 32" style="fill-rule:evenodd;clip-rule:evenodd;stroke-linejoin:round;stroke-miterlimit:2;" version="1.1"><defs></defs><g transform="matrix(1,0,0,1,-144,-144)"><g transform="matrix(1.5,0,0,1.2,-73.5,-34.8)"><path d="M151,165.667C151,164.746 150.403,164 149.667,164C149.238,164 148.762,164 148.333,164C147.597,164 147,164.746 147,165.667C147,167.516 147,170.484 147,172.333C147,173.254 147.597,174 148.333,174C148.762,174 149.238,174 149.667,174C150.403,174 151,173.254 151,172.333C151,170.484 151,167.516 151,165.667Z" style="fill:rgb(144,224,239);"></path></g><path d="M153,165C153,164.47 153.211,163.961 153.586,163.586C153.961,163.211 154.47,163 155,163L160,163C160.006,163 162,163.003 162,165C162,167 160,167 160,167L164.172,167C164.702,167 165.211,166.789 165.586,166.414C166.697,165.303 169,163 169,163C171.373,160.627 175.213,163.272 171.243,167.243C171.243,167.243 167.968,170.838 166.595,172.347C166.216,172.763 165.679,173 165.116,173C163.053,173 157.874,173 155,173C154.47,173 153.961,172.789 153.586,172.414C153.211,172.039 153,171.53 153,171C153,169.257 153,166.743 153,165Z" style="fill:rgb(144,224,239);"></path><g transform="matrix(0.857143,0,0,0.857143,23,22.7143)"></g><path d="M 153.529 173.615 C 153.974 173.865 154.48 174 155 174 C 157.874 174 163.053 174 165.116 174 C 165.961 174 166.766 173.644 167.334 173.02 C 167.334 173.02 171.967 167.932 171.967 167.932 C 173.934 165.956 174.193 164.182 173.798 163.027 C 173.114 161.029 170.338 160.248 168.293 162.293 C 168.293 162.293 165.99 164.596 164.879 165.707 C 164.691 165.895 164.437 166 164.172 166 L 162.868 166 C 162.952 165.71 163 165.379 163 165 C 163 162.005 160.009 162 160.001 162 L 155 162 C 154.48 162 153.974 162.135 153.529 162.385 C 152.996 161.552 152.062 161 151 161 L 149 161 C 147.343 161 146 162.343 146 164 L 146 172 C 146 173.657 147.343 175 149 175 L 151 175 C 152.062 175 152.996 174.448 153.529 173.615 Z M 152 164 L 152 172 C 152 172.552 151.552 173 151 173 C 151 173 149 173 149 173 C 148.448 173 148 172.552 148 172 C 148 172 148 164 148 164 C 148 163.448 148.448 163 149 163 C 149 163 151 163 151 163 C 151.552 163 152 163.448 152 164 Z M 154 165 L 154 171 C 154 171.265 154.105 171.52 154.293 171.707 C 154.48 171.895 154.735 172 155 172 L 165.116 172 C 165.398 172 165.666 171.881 165.856 171.673 C 167.229 170.165 170.503 166.569 170.519 166.552 L 170.536 166.536 C 171.732 165.339 172.145 164.373 171.906 163.674 C 171.635 162.883 170.517 162.898 169.707 163.707 C 169.707 163.707 167.404 166.01 166.293 167.121 C 165.73 167.684 164.967 168 164.172 168 L 157 168 C 156.448 168 156 167.552 156 167 C 156 166.448 156.448 166 157 166 L 160 166 C 160 166 161 166 161 165 C 161 164.001 160.002 164 160 164 L 155 164 C 154.735 164 154.48 164.105 154.293 164.293 C 154.105 164.48 154 164.735 154 165 Z" style="fill:rgb(25,144,167);"></path></g></g>
</svg>
