<?xml version="1.0" ?>
<!DOCTYPE svg  PUBLIC '-//W3C//DTD SVG 1.1//EN'  'http://www.w3.org/Graphics/SVG/1.1/DTD/svg11.dtd'>
<svg width="32px" height="32px" viewBox="0 0 32 32" style="fill-rule:evenodd;clip-rule:evenodd;stroke-linejoin:round;stroke-miterlimit:2;" version="1.1" xml:space="preserve" xmlns="http://www.w3.org/2000/svg" xmlns:serif="http://www.serif.com/" xmlns:xlink="http://www.w3.org/1999/xlink">
    <g transform="matrix(1,0,0,1,-144,-144)">
        <g transform="matrix(1.5,0,0,1.2,-73.5,-34.8)">
            <path d="M151,165.667C151,164.746 150.403,164 149.667,164C149.238,164 148.762,164 148.333,164C147.597,164 147,164.746 147,165.667C147,167.516 147,170.484 147,172.333C147,173.254 147.597,174 148.333,174C148.762,174 149.238,174 149.667,174C150.403,174 151,173.254 151,172.333C151,170.484 151,167.516 151,165.667Z" style="fill:rgb(144,224,239);"/>
        </g>
        <path d="M153,165C153,164.47 153.211,163.961 153.586,163.586C153.961,163.211 154.47,163 155,163L160,163C160.006,163 162,163.003 162,165C162,167 160,167 160,167L164.172,167C164.702,167 165.211,166.789 165.586,166.414C166.697,165.303 169,163 169,163C171.373,160.627 175.213,163.272 171.243,167.243C171.243,167.243 167.968,170.838 166.595,172.347C166.216,172.763 165.679,173 165.116,173C163.053,173 157.874,173 155,173C154.47,173 153.961,172.789 153.586,172.414C153.211,172.039 153,171.53 153,171C153,169.257 153,166.743 153,165Z" style="fill:rgb(144,224,239);"/>
            <g transform="matrix(0.857143,0,0,0.857143,23,22.7143)">
        <circle cx="161" cy="152" r="7" style="fill:rgb(144,224,239);"/>
        </g>
    <path d="M153.529,173.615C153.974,173.865 154.48,174 155,174C157.874,174 163.053,174 165.116,174C165.961,174 166.766,173.644 167.334,173.02C167.334,173.02 171.967,167.932 171.967,167.932C173.934,165.956 174.193,164.182 173.798,163.027C173.114,161.029 170.338,160.248 168.293,162.293C168.293,162.293 165.99,164.596 164.879,165.707C164.691,165.895 164.437,166 164.172,166L162.868,166C162.952,165.71 163,165.379 163,165C163,162.005 160.009,162 160.001,162L155,162C154.48,162 153.974,162.135 153.529,162.385C152.996,161.552 152.062,161 151,161L149,161C147.343,161 146,162.343 146,164L146,172C146,173.657 147.343,175 149,175L151,175C152.062,175 152.996,174.448 153.529,173.615ZM152,164L152,172C152,172.552 151.552,173 151,173C151,173 149,173 149,173C148.448,173 148,172.552 148,172C148,172 148,164 148,164C148,163.448 148.448,163 149,163C149,163 151,163 151,163C151.552,163 152,163.448 152,164ZM154,165L154,171C154,171.265 154.105,171.52 154.293,171.707C154.48,171.895 154.735,172 155,172L165.116,172C165.398,172 165.666,171.881 165.856,171.673C167.229,170.165 170.503,166.569 170.519,166.552L170.536,166.536C171.732,165.339 172.145,164.373 171.906,163.674C171.635,162.883 170.517,162.898 169.707,163.707C169.707,163.707 167.404,166.01 166.293,167.121C165.73,167.684 164.967,168 164.172,168L157,168C156.448,168 156,167.552 156,167C156,166.448 156.448,166 157,166L160,166C160,166 161,166 161,165C161,164.001 160.002,164 160,164L155,164C154.735,164 154.48,164.105 154.293,164.293C154.105,164.48 154,164.735 154,165ZM161,146C157.137,146 154,149.137 154,153C154,156.863 157.137,160 161,160C164.863,160 168,156.863 168,153C168,149.137 164.863,146 161,146ZM161,148C163.76,148 166,150.24 166,153C166,155.76 163.76,158 161,158C158.24,158 156,155.76 156,153C156,150.24 158.24,148 161,148Z" style="fill:rgb(25,144,167);"/>
</g>
</svg>
